<svg xmlns="http://www.w3.org/2000/svg" width="270.16" height="35" viewBox="0 0 270.16 35"><rect class="svg__rect" x="0" y="0" width="112.56" height="35" fill="#31C4F3"/><rect class="svg__rect" x="110.56" y="0" width="159.60000000000002" height="35" fill="#389AD5"/><path class="svg__text" d="M15.78 22L14.31 22L14.31 13.47L15.78 13.47L15.78 22ZM22.07 22L20.59 22L20.59 13.47L22.07 13.47L25.89 19.54L25.89 13.47L27.36 13.47L27.36 22L25.88 22L22.07 15.95L22.07 22ZM33.78 14.66L31.14 14.66L31.14 13.47L37.91 13.47L37.91 14.66L35.25 14.66L35.25 22L33.78 22L33.78 14.66ZM47.25 22L41.67 22L41.67 13.47L47.21 13.47L47.21 14.66L43.15 14.66L43.15 17.02L46.65 17.02L46.65 18.19L43.15 18.19L43.15 20.82L47.25 20.82L47.25 22ZM52.92 22L51.44 22L51.44 13.47L54.44 13.47Q55.92 13.47 56.72 14.13Q57.52 14.79 57.52 16.05L57.52 16.05Q57.52 16.90 57.11 17.48Q56.70 18.06 55.96 18.37L55.96 18.37L57.88 21.92L57.88 22L56.29 22L54.58 18.71L52.92 18.71L52.92 22ZM52.92 14.66L52.92 17.52L54.45 17.52Q55.20 17.52 55.62 17.15Q56.04 16.77 56.04 16.11L56.04 16.11Q56.04 15.43 55.65 15.05Q55.26 14.68 54.49 14.66L54.49 14.66L52.92 14.66ZM63.40 22L61.92 22L61.92 13.47L67.34 13.47L67.34 14.66L63.40 14.66L63.40 17.20L66.83 17.20L66.83 18.38L63.40 18.38L63.40 22ZM72.28 22L70.74 22L73.96 13.47L75.29 13.47L78.52 22L76.97 22L76.27 20.01L72.97 20.01L72.28 22ZM74.62 15.28L73.39 18.82L75.86 18.82L74.62 15.28ZM82.20 18.19L82.20 18.19L82.20 17.39Q82.20 16.19 82.63 15.27Q83.06 14.35 83.86 13.85Q84.66 13.35 85.71 13.35L85.71 13.35Q87.12 13.35 87.98 14.12Q88.84 14.89 88.98 16.29L88.98 16.29L87.51 16.29Q87.40 15.37 86.97 14.96Q86.54 14.55 85.71 14.55L85.71 14.55Q84.74 14.55 84.22 15.26Q83.70 15.96 83.69 17.33L83.69 17.33L83.69 18.09Q83.69 19.47 84.19 20.20Q84.68 20.92 85.64 20.92L85.64 20.92Q86.51 20.92 86.95 20.53Q87.39 20.14 87.51 19.22L87.51 19.22L88.98 19.22Q88.85 20.59 87.97 21.35Q87.10 22.12 85.64 22.12L85.64 22.12Q84.62 22.12 83.84 21.63Q83.06 21.15 82.64 20.26Q82.22 19.37 82.20 18.19ZM98.87 22L93.30 22L93.30 13.47L98.83 13.47L98.83 14.66L94.78 14.66L94.78 17.02L98.28 17.02L98.28 18.19L94.78 18.19L94.78 20.82L98.87 20.82L98.87 22Z" fill="#FFFFFF"/><path class="svg__text" d="M127.13 22L124.75 22L124.75 13.60L128.59 13.60Q129.73 13.60 130.57 13.98Q131.41 14.35 131.87 15.06Q132.32 15.76 132.32 16.71L132.32 16.71Q132.32 17.62 131.90 18.30Q131.47 18.98 130.68 19.36L130.68 19.36L132.49 22L129.95 22L128.42 19.77L127.13 19.77L127.13 22ZM127.13 15.47L127.13 17.93L128.45 17.93Q129.18 17.93 129.55 17.61Q129.92 17.29 129.92 16.71L129.92 16.71Q129.92 16.12 129.55 15.79Q129.18 15.47 128.45 15.47L128.45 15.47L127.13 15.47ZM138.53 22L136.10 22L139.81 13.60L142.16 13.60L145.87 22L143.40 22L142.74 20.37L139.19 20.37L138.53 22ZM140.97 15.93L139.88 18.61L142.04 18.61L140.97 15.93ZM154.00 22L150.03 22L150.03 13.60L154.00 13.60Q155.38 13.60 156.45 14.12Q157.51 14.63 158.10 15.58Q158.69 16.53 158.69 17.80L158.69 17.80Q158.69 19.07 158.10 20.02Q157.51 20.97 156.45 21.48Q155.38 22 154.00 22L154.00 22ZM152.40 15.50L152.40 20.10L153.90 20.10Q154.98 20.10 155.64 19.49Q156.29 18.88 156.29 17.80L156.29 17.80Q156.29 16.72 155.64 16.11Q154.98 15.50 153.90 15.50L153.90 15.50L152.40 15.50ZM165.80 22L163.42 22L163.42 13.60L165.80 13.60L165.80 22ZM170.54 17.80L170.54 17.80Q170.54 16.55 171.15 15.55Q171.75 14.56 172.82 14.00Q173.88 13.43 175.21 13.43L175.21 13.43Q176.54 13.43 177.60 14.00Q178.67 14.56 179.27 15.55Q179.88 16.55 179.88 17.80L179.88 17.80Q179.88 19.05 179.27 20.04Q178.67 21.04 177.61 21.60Q176.54 22.17 175.21 22.17L175.21 22.17Q173.88 22.17 172.82 21.60Q171.75 21.04 171.15 20.04Q170.54 19.05 170.54 17.80ZM172.94 17.80L172.94 17.80Q172.94 18.51 173.24 19.05Q173.54 19.60 174.06 19.90Q174.58 20.20 175.21 20.20L175.21 20.20Q175.85 20.20 176.36 19.90Q176.88 19.60 177.18 19.05Q177.48 18.51 177.48 17.80L177.48 17.80Q177.48 17.09 177.18 16.54Q176.88 16 176.36 15.70Q175.85 15.40 175.21 15.40L175.21 15.40Q174.57 15.40 174.06 15.70Q173.54 16 173.24 16.54Q172.94 17.09 172.94 17.80ZM190.99 22L184.61 22L184.61 13.60L186.99 13.60L186.99 20.11L190.99 20.11L190.99 22ZM194.98 17.80L194.98 17.80Q194.98 16.55 195.59 15.55Q196.19 14.56 197.25 14.00Q198.32 13.43 199.65 13.43L199.65 13.43Q200.98 13.43 202.04 14.00Q203.11 14.56 203.71 15.55Q204.32 16.55 204.32 17.80L204.32 17.80Q204.32 19.05 203.71 20.04Q203.11 21.04 202.04 21.60Q200.98 22.17 199.65 22.17L199.65 22.17Q198.32 22.17 197.25 21.60Q196.19 21.04 195.59 20.04Q194.98 19.05 194.98 17.80ZM197.38 17.80L197.38 17.80Q197.38 18.51 197.68 19.05Q197.98 19.60 198.50 19.90Q199.02 20.20 199.65 20.20L199.65 20.20Q200.29 20.20 200.80 19.90Q201.32 19.60 201.62 19.05Q201.92 18.51 201.92 17.80L201.92 17.80Q201.92 17.09 201.62 16.54Q201.32 16 200.80 15.70Q200.29 15.40 199.65 15.40L199.65 15.40Q199.01 15.40 198.50 15.70Q197.98 16 197.68 16.54Q197.38 17.09 197.38 17.80ZM208.62 17.80L208.62 17.80Q208.62 16.54 209.22 15.54Q209.81 14.55 210.88 13.99Q211.95 13.43 213.29 13.43L213.29 13.43Q214.47 13.43 215.41 13.83Q216.35 14.22 216.97 14.97L216.97 14.97L215.46 16.33Q214.61 15.40 213.44 15.40L213.44 15.40Q213.42 15.40 213.42 15.40L213.42 15.40Q212.34 15.40 211.68 16.06Q211.02 16.71 211.02 17.80L211.02 17.80Q211.02 18.50 211.32 19.04Q211.62 19.59 212.16 19.89Q212.70 20.20 213.39 20.20L213.39 20.20Q214.08 20.20 214.68 19.93L214.68 19.93L214.68 17.62L216.78 17.62L216.78 21.10Q216.05 21.61 215.12 21.89Q214.19 22.17 213.25 22.17L213.25 22.17Q211.93 22.17 210.87 21.61Q209.81 21.05 209.22 20.05Q208.62 19.06 208.62 17.80ZM224.15 22L221.77 22L221.77 13.60L224.15 13.60L224.15 22ZM228.73 21.24L228.73 21.24L229.51 19.49Q230.08 19.86 230.82 20.09Q231.56 20.32 232.28 20.32L232.28 20.32Q233.65 20.32 233.66 19.64L233.66 19.64Q233.66 19.28 233.27 19.11Q232.88 18.93 232.01 18.74L232.01 18.74Q231.06 18.53 230.42 18.30Q229.79 18.06 229.33 17.55Q228.88 17.03 228.88 16.16L228.88 16.16Q228.88 15.39 229.30 14.77Q229.72 14.15 230.55 13.79Q231.39 13.43 232.60 13.43L232.60 13.43Q233.42 13.43 234.23 13.62Q235.03 13.80 235.65 14.17L235.65 14.17L234.92 15.93Q233.71 15.28 232.58 15.28L232.58 15.28Q231.87 15.28 231.55 15.49Q231.23 15.70 231.23 16.04L231.23 16.04Q231.23 16.37 231.61 16.54Q232.00 16.71 232.85 16.89L232.85 16.89Q233.81 17.10 234.44 17.33Q235.07 17.56 235.53 18.07Q235.99 18.58 235.99 19.46L235.99 19.46Q235.99 20.21 235.58 20.83Q235.16 21.44 234.32 21.80Q233.47 22.17 232.27 22.17L232.27 22.17Q231.25 22.17 230.29 21.92Q229.33 21.67 228.73 21.24ZM242.36 15.48L239.78 15.48L239.78 13.60L247.30 13.60L247.30 15.48L244.74 15.48L244.74 22L242.36 22L242.36 15.48ZM251.09 21.24L251.09 21.24L251.87 19.49Q252.43 19.86 253.17 20.09Q253.92 20.32 254.64 20.32L254.64 20.32Q256.00 20.32 256.01 19.64L256.01 19.64Q256.01 19.28 255.62 19.11Q255.23 18.93 254.36 18.74L254.36 18.74Q253.41 18.53 252.78 18.30Q252.14 18.06 251.69 17.55Q251.23 17.03 251.23 16.16L251.23 16.16Q251.23 15.39 251.65 14.77Q252.07 14.15 252.91 13.79Q253.74 13.43 254.95 13.43L254.95 13.43Q255.78 13.43 256.58 13.62Q257.39 13.80 258.00 14.17L258.00 14.17L257.27 15.93Q256.07 15.28 254.94 15.28L254.94 15.28Q254.23 15.28 253.91 15.49Q253.58 15.70 253.58 16.04L253.58 16.04Q253.58 16.37 253.97 16.54Q254.35 16.71 255.20 16.89L255.20 16.89Q256.16 17.10 256.79 17.33Q257.42 17.56 257.88 18.07Q258.35 18.58 258.35 19.46L258.35 19.46Q258.35 20.21 257.93 20.83Q257.51 21.44 256.67 21.80Q255.83 22.17 254.63 22.17L254.63 22.17Q253.61 22.17 252.65 21.92Q251.69 21.67 251.09 21.24Z" fill="#FFFFFF" x="123.56"/></svg>